{
    "asset": {
        "version": "2.0",
        "generator": "Open Asset Import Library (assimp v5.2.cf7d3637)"
    },
    "extensionsUsed": [
        "KHR_materials_volume",
        "FB_ngon_encoding"
    ],
    "accessors": [
        {
            "bufferView": 0,
            "byteOffset": 0,
            "componentType": 5126,
            "count": 12258,
            "type": "VEC3",
            "max": [
                39.76094436645508,
                39.76515197753906,
                4.0
            ],
            "min": [
                -39.76655578613281,
                -39.76515197753906,
                0.0
            ]
        },
        {
            "bufferView": 1,
            "byteOffset": 0,
            "componentType": 5126,
            "count": 12258,
            "type": "VEC3",
            "max": [
                0.9999767541885376,
                0.9999414682388306,
                1.0
            ],
            "min": [
                -0.9998356103897095,
                -0.9999414682388306,
                -1.0
            ]
        },
        {
            "bufferView": 2,
            "byteOffset": 0,
            "componentType": 5125,
            "count": 12258,
            "type": "SCALAR",
            "max": [
                12257
            ],
            "min": [
                0
            ]
        }
    ],
    "buffers": [
        {
            "byteLength": 343224,
            "uri": "result.bin"
        }
    ],
    "bufferViews": [
        {
            "buffer": 0,
            "byteOffset": 0,
            "byteLength": 147096,
            "target": 34962
        },
        {
            "buffer": 0,
            "byteOffset": 147096,
            "byteLength": 147096,
            "target": 34962
        },
        {
            "buffer": 0,
            "byteOffset": 294192,
            "byteLength": 49032,
            "target": 34963
        }
    ],
    "materials": [
        {
            "name": "DefaultMaterial",
            "pbrMetallicRoughness": {
                "baseColorFactor": [
                    0.6274510025978088,
                    0.6274510025978088,
                    0.6274510025978088,
                    1.0
                ],
                "metallicFactor": 0.0
            }
        }
    ],
    "meshes": [
        {
            "primitives": [
                {
                    "mode": 4,
                    "material": 0,
                    "indices": 2,
                    "attributes": {
                        "POSITION": 0,
                        "NORMAL": 1
                    }
                }
            ]
        }
    ],
    "nodes": [
        {
            "name": "<STL_BINARY>",
            "children": [
                1
            ]
        },
        {
            "name": "node",
            "mesh": 0
        }
    ],
    "scenes": [
        {
            "nodes": [
                0
            ]
        }
    ],
    "scene": 0
}